<mxfile host="app.diagrams.net" agent="Mozilla/5.0 (Windows NT 10.0; Win64; x64) AppleWebKit/537.36 (KHTML, like Gecko) Chrome/131.0.0.0 Safari/537.36" version="27.0.3">
  <diagram name="第 1 页" id="F9QfNPKws5Z9E7l-O0tv">
    <mxGraphModel dx="1213" dy="730" grid="1" gridSize="10" guides="1" tooltips="1" connect="1" arrows="1" fold="1" page="1" pageScale="1" pageWidth="827" pageHeight="1169" math="0" shadow="0">
      <root>
        <mxCell id="0" />
        <mxCell id="1" parent="0" />
        <mxCell id="P88Dps1FK8DmfdaHWinE-63" value="" style="edgeStyle=orthogonalEdgeStyle;rounded=0;orthogonalLoop=1;jettySize=auto;html=1;" edge="1" parent="1" source="P88Dps1FK8DmfdaHWinE-6" target="P88Dps1FK8DmfdaHWinE-62">
          <mxGeometry relative="1" as="geometry" />
        </mxCell>
        <mxCell id="P88Dps1FK8DmfdaHWinE-6" value="start" style="ellipse;whiteSpace=wrap;html=1;" vertex="1" parent="1">
          <mxGeometry x="294" y="30" width="120" height="80" as="geometry" />
        </mxCell>
        <mxCell id="P88Dps1FK8DmfdaHWinE-43" value="end" style="ellipse;whiteSpace=wrap;html=1;" vertex="1" parent="1">
          <mxGeometry x="294" y="630" width="120" height="80" as="geometry" />
        </mxCell>
        <mxCell id="P88Dps1FK8DmfdaHWinE-54" value="" style="edgeStyle=orthogonalEdgeStyle;rounded=0;orthogonalLoop=1;jettySize=auto;html=1;" edge="1" parent="1" target="P88Dps1FK8DmfdaHWinE-53">
          <mxGeometry relative="1" as="geometry">
            <mxPoint x="354" y="260" as="sourcePoint" />
          </mxGeometry>
        </mxCell>
        <mxCell id="P88Dps1FK8DmfdaHWinE-60" value="" style="edgeStyle=orthogonalEdgeStyle;rounded=0;orthogonalLoop=1;jettySize=auto;html=1;" edge="1" parent="1" source="P88Dps1FK8DmfdaHWinE-53" target="P88Dps1FK8DmfdaHWinE-59">
          <mxGeometry relative="1" as="geometry" />
        </mxCell>
        <mxCell id="P88Dps1FK8DmfdaHWinE-53" value="redeem ore token from&amp;nbsp;&lt;span style=&quot;background-color: transparent;&quot;&gt;ore official&lt;/span&gt;" style="whiteSpace=wrap;html=1;" vertex="1" parent="1">
          <mxGeometry x="294" y="330" width="120" height="60" as="geometry" />
        </mxCell>
        <mxCell id="P88Dps1FK8DmfdaHWinE-61" value="" style="edgeStyle=orthogonalEdgeStyle;rounded=0;orthogonalLoop=1;jettySize=auto;html=1;" edge="1" parent="1" source="P88Dps1FK8DmfdaHWinE-59" target="P88Dps1FK8DmfdaHWinE-43">
          <mxGeometry relative="1" as="geometry" />
        </mxCell>
        <mxCell id="P88Dps1FK8DmfdaHWinE-59" value="repay ore to user&lt;div&gt;get usdc&lt;/div&gt;" style="whiteSpace=wrap;html=1;" vertex="1" parent="1">
          <mxGeometry x="294" y="470" width="120" height="60" as="geometry" />
        </mxCell>
        <mxCell id="P88Dps1FK8DmfdaHWinE-62" value="repay ore to user" style="whiteSpace=wrap;html=1;" vertex="1" parent="1">
          <mxGeometry x="294" y="200" width="120" height="60" as="geometry" />
        </mxCell>
      </root>
    </mxGraphModel>
  </diagram>
</mxfile>
